<?xml version="1.0" standalone="no"?>
<!DOCTYPE svg PUBLIC "-//W3C//DTD SVG 20010904//EN"
 "http://www.w3.org/TR/2001/REC-SVG-20010904/DTD/svg10.dtd">
<svg version="1.0" xmlns="http://www.w3.org/2000/svg"
 width="466.000000pt" height="466.000000pt" viewBox="0 0 466.000000 466.000000"
 preserveAspectRatio="xMidYMid meet">
<metadata>
Created by potrace 1.11, written by Peter Selinger 2001-2013
</metadata>
<g transform="translate(0.000000,466.000000) scale(0.100000,-0.100000)"
fill="#000000" stroke="none">
<path d="M2125 4543 c-413 -36 -810 -192 -1160 -456 -103 -78 -314 -289 -392
-392 -306 -405 -463 -867 -463 -1360 0 -970 628 -1824 1555 -2116 451 -143
986 -129 1434 37 786 291 1345 1015 1432 1853 15 143 6 451 -16 581 -78 458
-280 861 -594 1184 -434 445 -996 681 -1606 674 -82 -1 -168 -3 -190 -5z
m-190 -1458 c87 -23 167 -70 228 -134 64 -67 100 -134 130 -239 20 -73 21
-104 25 -629 l3 -553 -210 0 -211 0 0 510 c0 321 -4 527 -11 559 -14 68 -58
133 -105 157 -30 14 -60 19 -129 19 -81 0 -96 -3 -151 -31 -34 -17 -80 -46
-103 -64 l-41 -33 0 -559 0 -558 -210 0 -210 0 0 775 0 775 143 0 c175 0 197
-9 221 -91 9 -29 16 -59 16 -66 0 -20 5 -17 77 37 81 63 165 106 241 124 78
19 224 19 297 1z m1460 -9 c83 -23 212 -88 262 -133 l43 -38 -55 -85 c-30 -47
-62 -91 -72 -97 -28 -21 -79 -15 -150 17 -97 44 -159 60 -232 60 -89 0 -139
-16 -178 -55 -28 -28 -33 -40 -33 -83 0 -89 43 -120 277 -197 179 -60 269
-103 335 -164 75 -68 109 -141 115 -245 21 -331 -231 -551 -627 -549 -131 0
-223 17 -335 62 -80 33 -219 116 -213 129 2 4 27 47 57 96 35 55 65 93 84 103
42 21 101 12 167 -27 78 -46 140 -68 212 -76 164 -17 278 58 265 173 -9 79
-57 111 -267 178 -265 85 -368 153 -431 281 -28 57 -33 78 -37 167 -5 112 13
188 64 269 63 99 206 192 344 223 87 19 322 14 405 -9z"/>
</g>
</svg>
